# Blender 4.4.0
# www.blender.org
mtllib anvil.mtl
o Cube.006
v -1.000000 1.500000 2.000000
v -1.000000 1.900000 2.000000
v -1.000000 1.500000 -1.000000
v -1.000000 1.900000 -1.000000
v 1.000000 1.500000 2.000000
v 1.000000 1.900000 2.000000
v 1.000000 1.500000 -1.000000
v 1.000000 1.900000 -1.000000
vn -1.0000 -0.0000 -0.0000
vn -0.0000 -0.0000 -1.0000
vn 1.0000 -0.0000 -0.0000
vn -0.0000 -0.0000 1.0000
vn -0.0000 -1.0000 -0.0000
vn -0.0000 1.0000 -0.0000
vt 0.000000 0.000000
vt 1.000000 0.000000
vt 1.000000 1.000000
vt 0.000000 1.000000
s 0
f 1/1/1 2/2/1 4/3/1 3/4/1
f 3/1/2 4/2/2 8/3/2 7/4/2
f 7/1/3 8/2/3 6/3/3 5/4/3
f 5/1/4 6/2/4 2/3/4 1/4/4
f 3/1/5 7/2/5 5/3/5 1/4/5
f 8/1/6 4/2/6 2/3/6 6/4/6
o Cube.008
v 0.000000 1.000000 -1.000000
v -0.500000 1.750000 -1.000000
v 0.000000 1.750000 -3.000000
v 0.500000 1.750000 -1.000000
vn -0.8146 -0.5431 -0.2037
vn 0.8146 -0.5431 -0.2037
vn -0.0000 -0.0000 1.0000
vn -0.0000 1.0000 -0.0000
vt 0.000000 0.000000
vt 1.000000 0.000000
vt 1.000000 1.000000
s 0
f 9/5/7 10/6/7 11/7/7
f 11/5/8 12/6/8 9/7/8
f 9/5/9 12/6/9 10/7/9
f 11/5/10 10/6/10 12/7/10
o Cube
v -0.500000 1.750000 2.000000
v -0.500000 1.000000 1.000000
v -0.500000 1.750000 1.000000
v 0.500000 1.750000 2.000000
v 0.500000 1.000000 1.000000
v 0.500000 1.750000 1.000000
v -0.500000 1.000000 1.000000
v -0.500000 1.750000 1.000000
v -0.500000 1.000000 -1.000000
v -0.500000 1.750000 -1.000000
v 0.500000 1.000000 1.000000
v 0.500000 1.750000 1.000000
v 0.500000 1.000000 -1.000000
v 0.500000 1.750000 -1.000000
v -0.750000 -0.000000 1.500000
v -0.500000 1.000000 1.000000
v -0.750000 -0.000000 -1.500000
v -0.500000 1.000000 -1.000000
v 0.750000 -0.000000 1.500000
v 0.500000 1.000000 1.000000
v 0.750000 -0.000000 -1.500000
v 0.500000 1.000000 -1.000000
vn -1.0000 -0.0000 -0.0000
vn -0.0000 -0.0000 -1.0000
vn 1.0000 -0.0000 -0.0000
vn -0.0000 1.0000 -0.0000
vn -0.0000 -0.8000 0.6000
vn -0.0000 -0.0000 1.0000
vn -0.0000 -1.0000 -0.0000
vn -0.9701 0.2425 -0.0000
vn -0.0000 0.4472 -0.8944
vn 0.9701 0.2425 -0.0000
vn -0.0000 0.4472 0.8944
vt 0.375000 0.250000
vt 0.625000 0.000000
vt 0.625000 0.250000
vt 0.625000 0.500000
vt 0.375000 0.500000
vt 0.625000 0.750000
vt 0.875000 0.500000
vt 0.875000 0.750000
vt 0.125000 0.500000
vt 0.625000 1.000000
vt 0.000000 0.000000
vt 1.000000 0.000000
vt 1.000000 1.000000
vt 0.000000 1.000000
s 0
f 14/8/11 13/9/11 15/10/11
f 14/8/12 15/10/12 18/11/12 17/12/12
f 17/12/13 18/11/13 16/13/13
f 18/11/14 15/14/14 13/15/14 16/13/14
f 14/16/15 17/12/15 16/13/15 13/17/15
f 19/18/11 20/19/11 22/20/11 21/21/11
f 21/18/12 22/19/12 26/20/12 25/21/12
f 25/18/13 26/19/13 24/20/13 23/21/13
f 23/18/16 24/19/16 20/20/16 19/21/16
f 21/18/17 25/19/17 23/20/17 19/21/17
f 26/18/14 22/19/14 20/20/14 24/21/14
f 27/18/18 28/19/18 30/20/18 29/21/18
f 29/18/19 30/19/19 34/20/19 33/21/19
f 33/18/20 34/19/20 32/20/20 31/21/20
f 31/18/21 32/19/21 28/20/21 27/21/21
f 29/18/17 33/19/17 31/20/17 27/21/17
f 34/18/14 30/19/14 28/20/14 32/21/14
