# Blender 4.4.0
# www.blender.org
mtllib orenodes.mtl
o Cone
v 0.243828 0.383093 -0.485996
v 0.399613 0.314705 -0.289643
v 0.266432 0.537490 -0.278269
v 0.375889 0.457293 -0.393044
vn 0.6641 -0.3634 -0.6534
vn 0.7825 0.4456 0.4349
vn -0.0337 0.8039 -0.5938
vt 0.000000 0.000000
vt 1.000000 0.000000
vt 1.000000 1.000000
s 0
f 1/1/1 4/2/1 2/3/1
f 2/1/2 4/2/2 3/3/2
f 3/1/3 4/2/3 1/3/3
o Cone.001
v -0.192004 0.411990 0.407535
v -0.094554 0.311820 0.509855
v -0.265144 0.284052 0.498543
v -0.214496 0.461835 0.624352
vn 0.7511 0.6562 -0.0729
vn 0.0415 -0.5850 0.8100
vn -0.9039 0.3868 -0.1827
vt 0.000000 0.000000
vt 1.000000 0.000000
vt 1.000000 1.000000
s 0
f 5/4/4 8/5/4 6/6/4
f 6/4/5 8/5/5 7/6/5
f 7/4/6 8/5/6 5/6/6
o Cone.002
v 0.515068 0.233226 0.221143
v 0.560301 0.112324 0.336628
v 0.442323 0.232083 0.378328
v 0.586914 0.259132 0.350012
vn 0.8773 -0.1166 -0.4656
vn -0.7264 -0.5970 -0.3405
vn 0.2135 -0.1270 0.9687
vn -0.1993 0.9762 -0.0851
vt 0.000000 0.000000
vt 1.000000 0.000000
vt 1.000000 1.000000
s 0
f 9/7/7 12/8/7 10/9/7
f 9/7/8 10/8/8 11/9/8
f 10/7/9 12/8/9 11/9/9
f 11/7/10 12/8/10 9/9/10
o Cone.003
v 0.624937 0.054010 -0.371066
v 0.698756 0.035060 -0.265868
v 0.617178 0.146787 -0.280607
v 0.770383 0.137217 -0.377933
vn 0.4293 -0.7870 -0.4430
vn -0.7521 -0.4912 0.4393
vn 0.4965 0.4597 0.7364
vn -0.3900 0.6259 -0.6754
vt 0.000000 0.000000
vt 1.000000 0.000000
vt 1.000000 1.000000
s 0
f 13/10/11 16/11/11 14/12/11
f 13/10/12 14/11/12 15/12/12
f 14/10/13 16/11/13 15/12/13
f 15/10/14 16/11/14 13/12/14
o Cone.004
v -0.041329 0.096890 -0.734922
v -0.010241 0.254594 -0.670399
v -0.171487 0.191351 -0.670611
v -0.092014 0.226319 -0.794368
vn 0.8259 0.0663 -0.5599
vn 0.1558 -0.4002 0.9031
vn -0.3650 0.9306 0.0285
vn -0.6495 -0.5124 -0.5618
vt 0.000000 0.000000
vt 1.000000 0.000000
vt 1.000000 1.000000
s 0
f 17/13/15 20/14/15 18/15/15
f 17/13/16 18/14/16 19/15/16
f 18/13/17 20/14/17 19/15/17
f 19/13/18 20/14/18 17/15/18
o Cone.005
v -0.456062 0.420046 -0.171098
v -0.462899 0.418048 0.175239
v -0.613507 0.161646 -0.002455
v -0.611931 0.393778 -0.001084
vn -0.1636 0.9865 0.0025
vn -0.7638 0.0014 0.6454
vn -0.7378 0.0090 -0.6750
vt 0.000000 0.000000
vt 1.000000 0.000000
vt 1.000000 1.000000
s 0
f 21/16/19 24/17/19 22/18/19
f 22/16/20 24/17/20 23/18/20
f 23/16/21 24/17/21 21/18/21
o Cone.007
v -0.163573 0.643104 0.029436
v -0.055320 0.643104 0.216936
v -0.271827 0.643104 0.216936
v -0.163573 0.745132 0.154436
vn 0.7385 0.5224 -0.4264
vn -0.0000 0.5224 0.8527
vn -0.7385 0.5224 -0.4264
vt 0.000000 0.000000
vt 1.000000 0.000000
vt 1.000000 1.000000
s 0
f 25/19/22 28/20/22 26/21/22
f 26/19/23 28/20/23 27/21/23
f 27/19/24 28/20/24 25/21/24
o Cone.006
v -0.265496 0.376409 -0.511597
v -0.203432 0.473839 -0.452179
v -0.332644 0.477417 -0.423952
v -0.252105 0.513138 -0.607779
vn 0.8710 -0.3368 -0.3575
vn 0.1575 -0.5854 0.7953
vn 0.0754 0.9721 0.2219
vn -0.8788 -0.2140 -0.4266
vt 0.000000 0.000000
vt 1.000000 0.000000
vt 1.000000 1.000000
s 0
f 29/22/25 32/23/25 30/24/25
f 29/22/26 30/23/26 31/24/26
f 30/22/27 32/23/27 31/24/27
f 31/22/28 32/23/28 29/24/28
o Cone.008
v 0.364937 0.593850 0.136782
v 0.403301 0.382874 0.283471
v 0.203236 0.541007 0.333150
v 0.387406 0.564915 0.319369
vn 0.9887 0.1070 -0.1047
vn 0.0971 -0.1844 0.9780
vn -0.1144 0.9789 0.1692
vt 0.000000 0.000000
vt 1.000000 0.000000
vt 1.000000 1.000000
s 0
f 33/25/29 36/26/29 34/27/29
f 34/25/30 36/26/30 35/27/30
f 35/25/31 36/26/31 33/27/31
o Cone.009
v -0.153033 0.625181 -0.271097
v -0.036732 0.635217 -0.038788
v -0.013705 0.782883 -0.196780
v 0.176934 0.612928 -0.290398
vn -0.7762 0.5131 0.3664
vn 0.6910 0.4751 0.5447
vn -0.0354 0.4514 -0.8916
vt 0.000000 0.000000
vt 1.000000 0.000000
vt 1.000000 1.000000
s 0
f 37/28/32 38/29/32 39/30/32
f 38/28/33 40/29/33 39/30/33
f 39/28/34 40/29/34 37/30/34
