# Blender 5.0.0
# www.blender.org
mtllib pickaxe.mtl
o Cylinder
v -0.002606 -2.133483 -0.196092
v -0.002606 4.292534 -0.196092
v 0.032916 -2.133483 -0.192570
v 0.032916 4.292534 -0.192570
v 0.067073 -2.133483 -0.182140
v 0.067073 4.292534 -0.182140
v 0.098551 -2.133483 -0.165201
v 0.098551 4.292534 -0.165201
v 0.126143 -2.133483 -0.142406
v 0.126143 4.292534 -0.142406
v 0.148787 -2.133483 -0.114630
v 0.148787 4.292534 -0.114630
v 0.165613 -2.133483 -0.082941
v 0.165613 4.292534 -0.082941
v 0.175974 -2.133483 -0.048556
v 0.175974 4.292534 -0.048556
v 0.179472 -2.133483 -0.012797
v 0.179472 4.292534 -0.012797
v 0.175974 -2.133483 0.022962
v 0.175974 4.292534 0.022962
v 0.165613 -2.133483 0.057347
v 0.165613 4.292534 0.057347
v 0.148787 -2.133483 0.089036
v 0.148787 4.292534 0.089036
v 0.126143 -2.133483 0.116812
v 0.126143 4.292534 0.116812
v 0.098551 -2.133483 0.139607
v 0.098551 4.292534 0.139607
v 0.067073 -2.133483 0.156545
v 0.067073 4.292534 0.156545
v 0.032916 -2.133483 0.166975
v 0.032916 4.292534 0.166975
v -0.002606 -2.133483 0.170497
v -0.002606 4.292534 0.170497
v -0.038128 -2.133483 0.166975
v -0.038128 4.292534 0.166975
v -0.072284 -2.133483 0.156545
v -0.072284 4.292534 0.156545
v -0.103763 -2.133483 0.139607
v -0.103763 4.292534 0.139607
v -0.131355 -2.133483 0.116812
v -0.131355 4.292534 0.116812
v -0.153998 -2.133483 0.089036
v -0.153998 4.292534 0.089036
v -0.170824 -2.133483 0.057347
v -0.170824 4.292534 0.057347
v -0.181186 -2.133483 0.022962
v -0.181186 4.292534 0.022962
v -0.184684 -2.133483 -0.012797
v -0.184684 4.292534 -0.012797
v -0.181186 -2.133483 -0.048556
v -0.181186 4.292534 -0.048556
v -0.170824 -2.133483 -0.082941
v -0.170824 4.292534 -0.082941
v -0.153998 -2.133483 -0.114630
v -0.153998 4.292534 -0.114630
v -0.131355 -2.133483 -0.142406
v -0.131355 4.292534 -0.142406
v -0.103763 -2.133483 -0.165201
v -0.103763 4.292534 -0.165201
v -0.072284 -2.133483 -0.182140
v -0.072284 4.292534 -0.182140
v -0.038128 -2.133483 -0.192570
v -0.038128 4.292534 -0.192570
vn 0.0987 -0.0000 -0.9951
vn 0.2921 -0.0000 -0.9564
vn 0.4738 -0.0000 -0.8806
vn 0.6369 -0.0000 -0.7709
vn 0.7751 -0.0000 -0.6319
vn 0.8832 -0.0000 -0.4690
vn 0.9575 -0.0000 -0.2885
vn 0.9952 -0.0000 -0.0974
vn 0.9952 -0.0000 0.0974
vn 0.9575 -0.0000 0.2885
vn 0.8832 -0.0000 0.4690
vn 0.7751 -0.0000 0.6319
vn 0.6369 -0.0000 0.7709
vn 0.4738 -0.0000 0.8806
vn 0.2921 -0.0000 0.9564
vn 0.0987 -0.0000 0.9951
vn -0.0987 -0.0000 0.9951
vn -0.2921 -0.0000 0.9564
vn -0.4738 -0.0000 0.8806
vn -0.6369 -0.0000 0.7709
vn -0.7751 -0.0000 0.6319
vn -0.8832 -0.0000 0.4690
vn -0.9575 -0.0000 0.2885
vn -0.9952 -0.0000 0.0974
vn -0.9952 -0.0000 -0.0974
vn -0.9575 -0.0000 -0.2885
vn -0.8832 -0.0000 -0.4690
vn -0.7751 -0.0000 -0.6319
vn -0.6369 -0.0000 -0.7709
vn -0.4738 -0.0000 -0.8806
vn -0.0000 1.0000 -0.0000
vn -0.2921 -0.0000 -0.9564
vn -0.0987 -0.0000 -0.9951
vn -0.0000 -1.0000 -0.0000
vt 0.010967 0.002276
vt 0.999077 0.002332
vt 0.999074 0.033309
vt 0.010964 0.033254
vt 0.999070 0.064287
vt 0.010960 0.064231
vt 0.999067 0.095264
vt 0.010957 0.095208
vt 0.999063 0.126241
vt 0.010953 0.126186
vt 0.999060 0.157219
vt 0.010950 0.157163
vt 0.999056 0.188196
vt 0.010946 0.188140
vt 0.999053 0.219173
vt 0.010943 0.219118
vt 0.999049 0.250151
vt 0.010939 0.250095
vt 0.999045 0.281128
vt 0.010935 0.281072
vt 0.999042 0.312106
vt 0.010932 0.312050
vt 0.999038 0.343083
vt 0.010928 0.343027
vt 0.999035 0.374060
vt 0.010925 0.374004
vt 0.999031 0.405038
vt 0.010921 0.404982
vt 0.999028 0.436015
vt 0.010918 0.435959
vt 0.999024 0.466992
vt 0.010914 0.466936
vt 0.999021 0.497970
vt 0.010911 0.497914
vt 0.999017 0.528947
vt 0.010907 0.528891
vt 0.999013 0.559924
vt 0.010904 0.559868
vt 0.999010 0.590902
vt 0.010900 0.590846
vt 0.999006 0.621879
vt 0.010896 0.621823
vt 0.999003 0.652856
vt 0.010893 0.652800
vt 0.998999 0.683834
vt 0.010889 0.683778
vt 0.998996 0.714811
vt 0.010886 0.714755
vt 0.998992 0.745788
vt 0.010882 0.745732
vt 0.998989 0.776766
vt 0.010879 0.776710
vt 0.998985 0.807743
vt 0.010875 0.807687
vt 0.998981 0.838720
vt 0.010871 0.838665
vt 0.998978 0.869698
vt 0.010868 0.869642
vt 0.998974 0.900675
vt 0.010864 0.900619
vt 0.998971 0.931652
vt 0.010861 0.931596
vt 0.487496 0.699346
vt 0.000943 0.745732
vt 0.487485 0.792173
vt 0.473905 0.836801
vt 0.451856 0.877931
vt 0.422185 0.913981
vt 0.386033 0.943565
vt 0.344788 0.965548
vt 0.300037 0.979083
vt 0.253497 0.983652
vt 0.206959 0.979078
vt 0.162210 0.965537
vt 0.120971 0.943550
vt 0.084825 0.913962
vt 0.055163 0.877908
vt 0.033123 0.836776
vt 0.019553 0.792146
vt 0.014975 0.745733
vt 0.019564 0.699320
vt 0.033144 0.654691
vt 0.055193 0.613561
vt 0.084864 0.577512
vt 0.121016 0.547927
vt 0.162261 0.525945
vt 0.207013 0.512409
vt 0.253552 0.507840
vt 0.300090 0.512414
vt 0.344839 0.525955
vt 0.386078 0.547942
vt 0.422224 0.577531
vt 0.451887 0.613584
vt 0.473926 0.654716
vt 0.998967 0.962630
vt 0.010857 0.962574
vt 0.998964 0.993607
vt 0.010854 0.993551
vt 0.000999 0.250094
vt 0.487553 0.203709
vt 0.473983 0.159078
vt 0.451943 0.117946
vt 0.422281 0.081893
vt 0.386135 0.052305
vt 0.344896 0.030317
vt 0.300147 0.016777
vt 0.253609 0.012203
vt 0.207069 0.016771
vt 0.162318 0.030307
vt 0.121073 0.052290
vt 0.084921 0.081874
vt 0.055250 0.117924
vt 0.033201 0.159054
vt 0.019621 0.203682
vt 0.015032 0.250095
vt 0.019610 0.296509
vt 0.033180 0.341139
vt 0.055220 0.382271
vt 0.084882 0.418324
vt 0.121028 0.447913
vt 0.162267 0.469900
vt 0.207016 0.483441
vt 0.253554 0.488015
vt 0.300093 0.483446
vt 0.344845 0.469910
vt 0.386090 0.447928
vt 0.422242 0.418343
vt 0.451913 0.382293
vt 0.473962 0.341164
vt 0.487542 0.296535
s 0
usemtl Material.002
f 1/1/1 2/2/1 4/3/1 3/4/1
f 3/4/2 4/3/2 6/5/2 5/6/2
f 5/6/3 6/5/3 8/7/3 7/8/3
f 7/8/4 8/7/4 10/9/4 9/10/4
f 9/10/5 10/9/5 12/11/5 11/12/5
f 11/12/6 12/11/6 14/13/6 13/14/6
f 13/14/7 14/13/7 16/15/7 15/16/7
f 15/16/8 16/15/8 18/17/8 17/18/8
f 17/18/9 18/17/9 20/19/9 19/20/9
f 19/20/10 20/19/10 22/21/10 21/22/10
f 21/22/11 22/21/11 24/23/11 23/24/11
f 23/24/12 24/23/12 26/25/12 25/26/12
f 25/26/13 26/25/13 28/27/13 27/28/13
f 27/28/14 28/27/14 30/29/14 29/30/14
f 29/30/15 30/29/15 32/31/15 31/32/15
f 31/32/16 32/31/16 34/33/16 33/34/16
f 33/34/17 34/33/17 36/35/17 35/36/17
f 35/36/18 36/35/18 38/37/18 37/38/18
f 37/38/19 38/37/19 40/39/19 39/40/19
f 39/40/20 40/39/20 42/41/20 41/42/20
f 41/42/21 42/41/21 44/43/21 43/44/21
f 43/44/22 44/43/22 46/45/22 45/46/22
f 45/46/23 46/45/23 48/47/23 47/48/23
f 47/48/24 48/47/24 50/49/24 49/50/24
f 49/50/25 50/49/25 52/51/25 51/52/25
f 51/52/26 52/51/26 54/53/26 53/54/26
f 53/54/27 54/53/27 56/55/27 55/56/27
f 55/56/28 56/55/28 58/57/28 57/58/28
f 57/58/29 58/57/29 60/59/29 59/60/29
f 59/60/30 60/59/30 62/61/30 61/62/30
f 4/63/31 2/64/31 64/65/31 62/66/31 60/67/31 58/68/31 56/69/31 54/70/31 52/71/31 50/72/31 48/73/31 46/74/31 44/75/31 42/76/31 40/77/31 38/78/31 36/79/31 34/80/31 32/81/31 30/82/31 28/83/31 26/84/31 24/85/31 22/86/31 20/87/31 18/88/31 16/89/31 14/90/31 12/91/31 10/92/31 8/93/31 6/94/31
f 61/62/32 62/61/32 64/95/32 63/96/32
f 63/96/33 64/95/33 2/97/33 1/98/33
f 1/99/34 3/100/34 5/101/34 7/102/34 9/103/34 11/104/34 13/105/34 15/106/34 17/107/34 19/108/34 21/109/34 23/110/34 25/111/34 27/112/34 29/113/34 31/114/34 33/115/34 35/116/34 37/117/34 39/118/34 41/119/34 43/120/34 45/121/34 47/122/34 49/123/34 51/124/34 53/125/34 55/126/34 57/127/34 59/128/34 61/129/34 63/130/34
o Cube
v -0.246211 4.036711 0.264624
v -0.246211 4.523921 0.264624
v -0.246211 4.036711 -0.285848
v -0.246211 4.523921 -0.285848
v 0.240999 4.036711 0.264624
v 0.240999 4.523921 0.264624
v 0.240999 4.036711 -0.285848
v 0.240999 4.523921 -0.285848
vn -1.0000 -0.0000 -0.0000
vn -0.0000 -0.0000 -1.0000
vn 1.0000 -0.0000 -0.0000
vn -0.0000 -0.0000 1.0000
vn -0.0000 -1.0000 -0.0000
vn -0.0000 1.0000 -0.0000
vt 0.375000 0.000000
vt 0.625000 0.000000
vt 0.625000 0.250000
vt 0.375000 0.250000
vt 0.625000 0.500000
vt 0.375000 0.500000
vt 0.625000 0.750000
vt 0.375000 0.750000
vt 0.625000 1.000000
vt 0.375000 1.000000
vt 0.125000 0.500000
vt 0.125000 0.750000
vt 0.875000 0.500000
vt 0.875000 0.750000
s 0
usemtl Material.004
f 65/131/35 66/132/35 68/133/35 67/134/35
f 67/134/36 68/133/36 72/135/36 71/136/36
f 71/136/37 72/135/37 70/137/37 69/138/37
f 69/138/38 70/137/38 66/139/38 65/140/38
f 67/141/39 71/136/39 69/138/39 65/142/39
f 72/135/40 68/143/40 66/144/40 70/137/40
o Cube.001
v -0.199702 4.133248 2.443734
v -0.199702 4.133248 0.237506
v -0.199702 4.449111 0.237506
v 0.194490 4.133248 2.443734
v 0.194490 4.133248 0.237506
v 0.194490 4.449111 0.237506
vn -1.0000 -0.0000 -0.0000
vn -0.0000 -0.0000 -1.0000
vn 1.0000 -0.0000 -0.0000
vn -0.0000 -1.0000 -0.0000
vn -0.0000 0.9899 0.1417
vt 0.375000 0.000000
vt 0.625000 0.250000
vt 0.375000 0.250000
vt 0.625000 0.500000
vt 0.375000 0.500000
vt 0.375000 0.750000
vt 0.125000 0.500000
vt 0.125000 0.750000
vt 0.875000 0.500000
vt 0.375000 1.000000
s 0
usemtl Material.005
f 73/145/41 75/146/41 74/147/41
f 74/147/42 75/146/42 78/148/42 77/149/42
f 77/149/43 78/148/43 76/150/43
f 74/151/44 77/149/44 76/150/44 73/152/44
f 78/148/45 75/153/45 73/154/45 76/150/45
o Cube.002
v -0.199702 4.133051 -0.190533
v -0.199702 4.448915 -0.190533
v -0.199702 4.133051 -2.344715
v 0.194490 4.133051 -0.190533
v 0.194490 4.448915 -0.190533
v 0.194490 4.133051 -2.344715
vn -1.0000 -0.0000 -0.0000
vn 1.0000 -0.0000 -0.0000
vn -0.0000 -0.0000 1.0000
vn -0.0000 -1.0000 -0.0000
vn -0.0000 0.9894 -0.1451
vt 0.375000 0.000000
vt 0.625000 0.000000
vt 0.375000 0.250000
vt 0.947946 0.019169
vt 0.022087 0.898201
vt 0.947946 0.898201
vt 0.375000 0.750000
vt 0.625000 0.750000
vt 0.625000 1.000000
vt 0.375000 1.000000
vt 0.024574 0.374008
vt 0.947946 0.374008
vt 0.947946 0.624008
vt 0.024574 0.624008
vt 0.875000 0.750000
vt 0.375000 0.500000
s 0
usemtl Material.003
f 79/155/46 80/156/46 81/157/46
f 84/158/47 83/159/47 82/160/47
f 82/161/48 83/162/48 80/163/48 79/164/48
f 81/165/49 84/166/49 82/167/49 79/168/49
f 80/169/50 83/162/50 84/170/50 81/157/50
