# Blender 4.4.0
# www.blender.org
mtllib pickaxe.mtl
o Cube
v 0.250000 4.000000 -0.250000
v 0.250000 -4.000000 -0.250000
v 0.250000 4.000000 0.250000
v 0.250000 -4.000000 0.250000
v -0.250000 4.000000 -0.250000
v -0.250000 -4.000000 -0.250000
v -0.250000 4.000000 0.250000
v -0.250000 -4.000000 0.250000
v -2.500000 4.000000 0.250000
v -2.500000 4.500000 0.250000
v -2.500000 4.000000 -0.250000
v -2.500000 4.500000 -0.250000
v 2.500000 4.000000 0.250000
v 2.500000 4.500000 0.250000
v 2.500000 4.000000 -0.250000
v 2.500000 4.500000 -0.250000
vn -0.0000 1.0000 -0.0000
vn -0.0000 -0.0000 1.0000
vn -1.0000 -0.0000 -0.0000
vn -0.0000 -1.0000 -0.0000
vn 1.0000 -0.0000 -0.0000
vn -0.0000 -0.0000 -1.0000
vt 0.000000 0.000000
vt 1.000000 0.000000
vt 1.000000 1.000000
vt 0.000000 1.000000
s 0
usemtl Material
f 1/1/1 5/2/1 7/3/1 3/4/1
f 4/1/2 3/2/2 7/3/2 8/4/2
f 8/1/3 7/2/3 5/3/3 6/4/3
f 6/1/4 2/2/4 4/3/4 8/4/4
f 2/1/5 1/2/5 3/3/5 4/4/5
f 6/1/6 5/2/6 1/3/6 2/4/6
usemtl 
f 9/1/3 10/2/3 12/3/3 11/4/3
f 11/1/6 12/2/6 16/3/6 15/4/6
f 15/1/5 16/2/5 14/3/5 13/4/5
f 13/1/2 14/2/2 10/3/2 9/4/2
f 11/1/4 15/2/4 13/3/4 9/4/4
f 16/1/1 12/2/1 10/3/1 14/4/1
