# Blender 4.4.0
# www.blender.org
mtllib rocket.mtl
o Cone
v 0.000000 5.500000 -1.000000
v 0.707107 5.500000 -0.707107
v 1.000000 5.500000 0.000000
v 0.707107 5.500000 0.707107
v 0.000000 5.500000 1.000000
v -0.707107 5.500000 0.707107
v -1.000000 5.500000 0.000000
v -0.707107 5.500000 -0.707107
v 0.000000 7.500000 0.000000
vn 0.3474 0.4194 -0.8387
vn 0.8387 0.4194 -0.3474
vn 0.8387 0.4194 0.3474
vn 0.3474 0.4194 0.8387
vn -0.3474 0.4194 0.8387
vn -0.8387 0.4194 0.3474
vn -0.8387 0.4194 -0.3474
vn -0.3474 0.4194 -0.8387
vt 0.999900 0.707065
vt 0.500000 0.500000
vt 0.999900 0.292935
vt 0.707065 0.000100
vt 0.292935 0.000100
vt 0.000100 0.292935
vt 0.000100 0.707065
vt 0.292935 0.999900
vt 0.707065 0.999900
s 0
f 1/1/1 9/2/1 2/3/1
f 2/3/2 9/2/2 3/4/2
f 3/4/3 9/2/3 4/5/3
f 4/5/4 9/2/4 5/6/4
f 5/6/5 9/2/5 6/7/5
f 6/7/6 9/2/6 7/8/6
f 7/8/7 9/2/7 8/9/7
f 8/9/8 9/2/8 1/1/8
o Plane
v 0.000000 2.500000 1.000000
v 0.000000 0.500000 1.000000
v 0.000000 0.000000 2.999547
vn -1.0000 -0.0000 -0.0000
vt 0.000000 0.000000
vt 1.000000 0.000000
vt 1.000000 1.000000
s 0
f 10/10/9 11/11/9 12/12/9
o Plane.001
v 1.000000 2.500000 -0.000000
v 1.000000 0.500000 -0.000000
v 2.999547 0.000000 0.000000
vn -0.0000 -0.0000 1.0000
vt 0.000000 0.000000
vt 1.000000 0.000000
vt 1.000000 1.000000
s 0
f 13/13/10 14/14/10 15/15/10
o Plane.002
v 0.000000 2.500000 -1.000000
v -0.000000 0.500000 -1.000000
v 0.000000 0.000000 -2.999547
vn 1.0000 -0.0000 -0.0000
vt 0.000000 0.000000
vt 1.000000 0.000000
vt 1.000000 1.000000
s 0
f 16/16/11 17/17/11 18/18/11
o Plane.003
v -1.000000 2.500000 -0.000000
v -1.000000 0.500000 -0.000000
v -2.999547 0.000000 0.000000
vn -0.0000 -0.0000 -1.0000
vt 0.000000 0.000000
vt 1.000000 0.000000
vt 1.000000 1.000000
s 0
f 19/19/12 20/20/12 21/21/12
o Cylinder
v 0.000000 0.500000 -1.000000
v 0.000000 5.500000 -1.000000
v 0.707107 0.500000 -0.707107
v 0.707107 5.500000 -0.707107
v 1.000000 0.500000 0.000000
v 1.000000 5.500000 0.000000
v 0.707107 0.500000 0.707107
v 0.707107 5.500000 0.707107
v 0.000000 0.500000 1.000000
v 0.000000 5.500000 1.000000
v -0.707107 0.500000 0.707107
v -0.707107 5.500000 0.707107
v -1.000000 0.500000 0.000000
v -1.000000 5.500000 0.000000
v -0.707107 0.500000 -0.707107
v -0.707107 5.500000 -0.707107
vn 0.3827 -0.0000 -0.9239
vn 0.9239 -0.0000 -0.3827
vn 0.9239 -0.0000 0.3827
vn 0.3827 -0.0000 0.9239
vn -0.3827 -0.0000 0.9239
vn -0.9239 -0.0000 0.3827
vn -0.9239 -0.0000 -0.3827
vn -0.3827 -0.0000 -0.9239
vt 1.000000 0.500000
vt 1.000000 1.000000
vt 0.875000 1.000000
vt 0.875000 0.500000
vt 0.750000 1.000000
vt 0.750000 0.500000
vt 0.625000 1.000000
vt 0.625000 0.500000
vt 0.500000 1.000000
vt 0.500000 0.500000
vt 0.375000 1.000000
vt 0.375000 0.500000
vt 0.250000 1.000000
vt 0.250000 0.500000
vt 0.125000 1.000000
vt 0.125000 0.500000
vt 0.000000 1.000000
vt 0.000000 0.500000
s 0
f 22/22/13 23/23/13 25/24/13 24/25/13
f 24/25/14 25/24/14 27/26/14 26/27/14
f 26/27/15 27/26/15 29/28/15 28/29/15
f 28/29/16 29/28/16 31/30/16 30/31/16
f 30/31/17 31/30/17 33/32/17 32/33/17
f 32/33/18 33/32/18 35/34/18 34/35/18
f 34/35/19 35/34/19 37/36/19 36/37/19
f 36/37/20 37/36/20 23/38/20 22/39/20
